# xmcd CD database file generated by LOLA_Freedb v0.9beta0
# 
# Track frame offsets:
#      150
#      19500
#      39376
#      58591
#      87799
#      108411
#      130614
#      148423
#      160348
# 
# Disc length: 2375 seconds
# 
# Revision: 0 
# Processed by: cddbd v1.5.2PL0 Copyright (c) Steve Scherf et al.
# Submitted via: LOLA_Freedb v0.9beta0
# 
DISCID=70094509
DTITLE=Al Jarreau - Jarreau
DYEAR=1983
DGENRE=
TTITLE0=Al Jarreau - Mornin'
TTITLE1=Al Jarreau - Boogie Down
TTITLE2=Al Jarreau - I Will Be Here For You
TTITLE3=Al Jarreau - Save Me
TTITLE4=Al Jarreau - Step By Step
TTITLE5=Al Jarreau - Black And Blues
TTITLE6=Al Jarreau - Trouble In Paradise
TTITLE7=Al Jarreau - Not Like This
TTITLE8=Al Jarreau - Love Is Waiting
EXTD=
EXTT0=
EXTT1=
EXTT2=
EXTT3=
EXTT4=
EXTT5=
EXTT6=
EXTT7=
EXTT8=
PLAYORDER=
